<svg viewBox="0 0 135 124" fill="none" xmlns="http://www.w3.org/2000/svg"><g clip-path="url(#clip0)"><path d="M124 28v79a17.005 17.005 0 0 1-5.489 12.509A16.999 16.999 0 0 1 107 124H28a16.997 16.997 0 0 1-16.94-15.59c-.04-.46-.06-.93-.06-1.41V28a17 17 0 0 1 17-17h79a17 17 0 0 1 17 17z" fill="#666161"/><path d="M67.5 40.64v45.07l-56.44 22.7c-.04-.46-.06-.93-.06-1.41V91.63l56.5-50.99zM124 91.61V107c0 .48-.02.95-.06 1.41l-56.42-22.7V40.64L124 91.61z" fill="#4B4B4B"/><path d="M104.7 11h-6.83v113h6.83V11z" fill="#FEC72E"/><path d="M97.87 68.03v29.89l6.83 2.75V74.19l-6.83-6.16z" fill="#FD9526"/><path d="M27.75 76.65l17.79-3.8V43.5a6.43 6.43 0 0 0-6.42-6.42h-4.95a6.43 6.43 0 0 0-6.42 6.42v33.15zM107.27 76.65l-17.79-3.8V43.5a6.43 6.43 0 0 1 6.42-6.42h4.95a6.432 6.432 0 0 1 6.42 6.42v33.15z" fill="#C0A6A6"/><path d="M67.5 23.74v45.07L11 91.54l-2.93 1.18a5.78 5.78 0 0 1-2.2.43 5.88 5.88 0 0 1-3.93-10.24L11 74.73l56.5-50.99z" fill="#D8C8C8"/><path d="M11 91.54l56.5-22.73v-6L11 85.54" fill="#C0A6A6"/><path d="M67.52 23.74v45.07L124 91.54l3 1.18a5.781 5.781 0 0 0 2.2.43 5.88 5.88 0 0 0 3.93-10.24L124 74.73 67.52 23.74z" fill="#D8C8C8"/><path d="M124.02 91.54l-56.5-22.73v-6l56.5 22.73" fill="#C0A6A6"/><path d="M89.35 119.84l-21.85-4.41V85.71l23.23 22.62a9 9 0 0 1 2.72 6.45v1.7a3.42 3.42 0 0 1-4.1 3.36z" fill="#2BB1F3"/><path d="M45.67 119.84l21.85-4.41V85.71l-23.23 22.62a8.998 8.998 0 0 0-2.73 6.45v1.7a3.423 3.423 0 0 0 1.26 2.654 3.433 3.433 0 0 0 2.85.706z" fill="#2BB1F3"/><path d="M77.15 94.43l-7.21 22.83a2.56 2.56 0 0 1-4.88 0l-7.22-22.83a34.429 34.429 0 0 1-1.59-10.33V11.25A11.25 11.25 0 0 1 67.5 0a11.25 11.25 0 0 1 11.24 11.25V84.1a34.117 34.117 0 0 1-1.59 10.33z" fill="#EBE3E3"/><path d="M69.68 74v32.1a2.169 2.169 0 0 1-3.705 1.534 2.168 2.168 0 0 1-.635-1.534V74a2.17 2.17 0 1 1 4.34 0z" fill="#C0A6A6"/><path d="M69.68 94.07v12a2.169 2.169 0 0 1-3.705 1.534 2.168 2.168 0 0 1-.635-1.534v-12a2.17 2.17 0 0 1 4.34 0zM76.22 14.53v1.16a1.001 1.001 0 0 1-1.67.64 9.74 9.74 0 0 0-14.07 0 1 1 0 0 1-1.67-.64v-1.18a4 4 0 0 1 2-3.48 13.82 13.82 0 0 1 13.5 0 4.001 4.001 0 0 1 1.91 3.5z" fill="#666161"/><path d="M135 87.27a5.892 5.892 0 0 1-5.87 5.88 5.781 5.781 0 0 1-2.2-.43L124 91.54V74.73l9.06 8.18a5.9 5.9 0 0 1 1.94 4.36zM11 74.73v16.81l-2.93 1.18a5.78 5.78 0 0 1-2.2.43 5.88 5.88 0 0 1-3.93-10.24L11 74.73z" fill="#2BB1F3"/></g><defs><clipPath id="clip0"><path fill="#fff" d="M0 0h135v124H0z"/></clipPath></defs></svg>