<?xml version="1.0" encoding="utf-8"?>
<!-- Generator: Adobe Illustrator 24.3.0, SVG Export Plug-In . SVG Version: 6.00 Build 0)  -->
<svg version="1.1" xmlns="http://www.w3.org/2000/svg" xmlns:xlink="http://www.w3.org/1999/xlink" x="0px" y="0px"
	 viewBox="0 0 200 20" style="enable-background:new 0 0 200 20;" xml:space="preserve">
<style type="text/css">
	.st0{fill:#E1E1DE;}
	.st1{fill:#2EE229;}
	.st2{fill:none;stroke:#C9FFC5;stroke-width:2;stroke-linecap:round;stroke-linejoin:round;stroke-miterlimit:10;}
</style>
<g id="Layer_3">
	<path class="st0" d="M190.5,14.4H10c-2.4,0-4.4-2-4.4-4.4v0c0-2.4,2-4.4,4.4-4.4h180.5c2.4,0,4.4,2,4.4,4.4v0
		C194.9,12.4,192.9,14.4,190.5,14.4z"/>
</g>
<g id="Capa_2">
	<path class="st1" d="M131.8,14.4H10c-2.4,0-4.4-2-4.4-4.4v0c0-2.4,2-4.4,4.4-4.4h121.8c2.4,0,4.4,2,4.4,4.4v0
		C136.2,12.4,134.2,14.4,131.8,14.4z"/>
	<line class="st2" x1="9.7" y1="8" x2="131.6" y2="8"/>
</g>
</svg>
