<?xml version="1.0" encoding="utf-8"?>
<!-- Generator: Adobe Illustrator 24.3.0, SVG Export Plug-In . SVG Version: 6.00 Build 0)  -->
<svg version="1.1" xmlns="http://www.w3.org/2000/svg" xmlns:xlink="http://www.w3.org/1999/xlink" x="0px" y="0px"
	 viewBox="0 0 200 20" style="enable-background:new 0 0 200 20;" xml:space="preserve">
<style type="text/css">
	.st0{fill:#E1E1DE;}
	.st1{fill:none;stroke:#42A8FC;stroke-width:2;stroke-linecap:round;stroke-linejoin:round;stroke-miterlimit:10;}
	.st2{fill:#85D3FF;}
	.st3{fill:none;stroke:#CCF5FF;stroke-width:2;stroke-linecap:round;stroke-linejoin:round;stroke-miterlimit:10;}
	.st4{fill:none;stroke:#61BAF7;stroke-width:2;stroke-linecap:round;stroke-linejoin:round;stroke-miterlimit:10;}
</style>
<g id="Capa_1">
	<g id="Layer_3">
		<path class="st0" d="M190.5,14.4H10c-2.4,0-4.4-2-4.4-4.4l0,0c0-2.4,2-4.4,4.4-4.4h180.5c2.4,0,4.4,2,4.4,4.4l0,0
			C194.9,12.4,192.9,14.4,190.5,14.4z"/>
	</g>
	<path class="st1" d="M85.2,17.1"/>
</g>
<g id="Capa_3">
	<path class="st2" d="M109.3,14.4H10c-2.4,0-4.4-2-4.4-4.4l0,0c0-2.4,2-4.4,4.4-4.4h99.3c2.4,0,4.4,2,4.4,4.4l0,0
		C113.7,12.4,111.7,14.4,109.3,14.4z"/>
</g>
<g id="Capa_2">
	<g id="Capa_2_1_">
		<line class="st3" x1="9.7" y1="7" x2="110.1" y2="7"/>
		<line class="st4" x1="9.7" y1="12.9" x2="107.3" y2="12.9"/>
	</g>
	<path class="st4" d="M110.9,10.6L110.9,10.6c0,1.3-1.2,2.3-2.7,2.3l0,0"/>
	<path class="st3" d="M7.3,9.3L7.3,9.3C7.3,8,8.5,7,9.9,7l0,0"/>
</g>
</svg>
