<?xml version="1.0" encoding="utf-8"?>
<!-- Generator: Adobe Illustrator 24.3.0, SVG Export Plug-In . SVG Version: 6.00 Build 0)  -->
<svg version="1.1" id="Layer_3" xmlns="http://www.w3.org/2000/svg" xmlns:xlink="http://www.w3.org/1999/xlink" x="0px" y="0px"
	 viewBox="0 0 135 124" style="enable-background:new 0 0 135 124;" xml:space="preserve">
<style type="text/css">
	.st0{fill:#FED7D8;}
	.st1{fill:#F34848;}
	.st2{fill:#FF9881;}
	.st3{fill:#CC7900;}
	.st4{fill:#AF5F00;}
	.st5{fill:#FFB49E;}
	.st6{fill:#FFFFFF;}
	.st7{fill:#A24242;}
	.st8{fill:#F14848;}
	.st9{fill:#777777;}
	.st10{fill:#FFB5A1;}
	.st11{fill:#62361B;}
</style>
<path class="st0" d="M124,28v79c0,9.4-7.6,17-17,17H28c-9.4,0-17-7.6-17-17V28c0-9.4,7.6-17,17-17h79C116.4,11,124,18.6,124,28z"/>
<path class="st1" d="M123.1,112.6c-2.4,6.8-8.8,11.4-16.1,11.4H57.7l6.7-5.4c4.9-3.9,10.9-6,17.1-6L123.1,112.6z"/>
<path class="st2" d="M119.7,112.7l-13.5,6.4c-5.1,2.4-11.2,0.8-14.4-3.8l-1.8-2.6v-15h29.6V112.7z"/>
<circle class="st3" cx="96.7" cy="29.5" r="29.3"/>
<path class="st4" d="M59.2,88.9c-2.4-0.6-3.8-3.1-3.2-5.5c0,0,0,0,0,0L62.9,58l10.4,1.5l-8.6,26.2C64,88.1,61.6,89.5,59.2,88.9z"/>
<path class="st4" d="M67.2,101c-2.5-0.2-4.3-2.3-4.2-4.7c0,0,0,0,0-0.1l1.8-26.3l10.4-0.6l-3.3,27.4C71.8,99.2,69.7,101.1,67.2,101
	C67.2,101,67.2,101,67.2,101z"/>
<circle class="st2" cx="75.3" cy="69.8" r="13"/>
<circle class="st2" cx="121.9" cy="69.8" r="13"/>
<path class="st5" d="M96.2,23.2V23c16.2,0,29.2,13.1,29.2,29.2v34.1c0,7.2-4.9,13.5-11.8,15.4l-20.4,5.4c-2.4,0.6-4.9,0.5-7.1-0.5
	l-9.5-4c-5.9-2.5-9.7-8.3-9.7-14.7V52.3c0-16,13-29,29-29C96.1,23.2,96.2,23.2,96.2,23.2z"/>
<path class="st6" d="M85.7,59.6v6.6c-0.2,4.8-4.2,8.5-8.9,8.4c-4.5-0.2-8.2-3.8-8.4-8.4v-6.6c0-2.7,1.3-5.3,3.5-6.9l0.1-0.1
	c1.5-1.1,3.2-1.6,5.1-1.6c0.3,0,0.5,0,0.8,0c0.3,0,0.7,0.1,1,0.2c1.6,0.3,3.2,1.1,4.3,2.3C84.8,55.1,85.7,57.3,85.7,59.6z"/>
<path class="st6" d="M111,59.6v6.6c-0.2,4.8-4.2,8.5-8.9,8.4c-4.5-0.2-8.2-3.8-8.4-8.4v-6.6c0-1.9,0.6-3.8,1.8-5.3
	c0.2-0.3,0.4-0.5,0.7-0.8c1.4-1.4,3.3-2.3,5.3-2.5c0.3,0,0.6,0,0.8,0h0.1C107.2,51.1,111,54.9,111,59.6z"/>
<path class="st3" d="M64.8,6.3c-0.1-2.5,1.7-4.6,4.2-4.7l26.3-1.4l0.5,8.9l-26.3,1.4C67,10.6,64.9,8.7,64.8,6.3z"/>
<path class="st3" d="M49.9,28.9c-1.3-2.1-0.8-4.8,1.3-6.2l22-14.4l6.8,8L56.1,30.1C54.1,31.5,51.3,30.9,49.9,28.9z"/>
<path class="st3" d="M48.8,45.1c-1.9-1.6-2-4.4-0.4-6.3c0,0,0,0,0,0l22.4-24.4L74.5,25L55.2,44.7C53.5,46.5,50.7,46.7,48.8,45.1
	C48.9,45.1,48.9,45.1,48.8,45.1z"/>
<path class="st3" d="M47.1,60.2c-2-1.4-2.5-4.2-1.1-6.2l15-21.7l9.3,4.9L53.3,59C51.9,61,49.1,61.5,47.1,60.2z M85.5,42.4
	c-2-1.4-2.6-4.2-1.2-6.2l14.8-21.8l9.3,4.8l-16.7,22C90.3,43.3,87.5,43.8,85.5,42.4z"/>
<path class="st3" d="M56.1,73.3c-3.2-0.7-5-3.4-4.1-5.9l14.8-42.6l14.6,5.6L63.5,70.1C62.6,72.6,59.3,74.1,56.1,73.3z"/>
<path class="st3" d="M73.7,47.6c4.7-10.4,14.4-19,27.1-23.7l1.3-0.5l-19.3-8.6L70.9,33.6L73.7,47.6z"/>
<path class="st7" d="M105.3,81.4l0.1,1.2c0.1,0.7,0.1,1.5,0,2.2c-0.5,5.4-4.8,9.6-10.2,10.2l-5.5,0.5c-6.2,0.6-11.8-3.9-12.4-10.2
	c0,0,0,0,0,0l-0.1-1.2c-0.1-1.2,0.7-2.2,1.9-2.3c0,0,0,0,0,0l23.8-2.3C104.2,79.3,105.2,80.2,105.3,81.4z"/>
<path class="st6" d="M105.3,81.4l0.1,1.2c0.1,0.7,0.1,1.5,0,2.2c-0.3,0.1-0.6,0.2-0.9,0.2l-20.2,2c-1.6,0.2-3.1-1-3.3-2.6
	c0,0,0-0.1,0-0.1l-0.3-2.8l22.3-2.2C104.2,79.3,105.2,80.2,105.3,81.4z"/>
<path class="st8" d="M103.2,90.6c-1.9,2.5-4.8,4.1-7.9,4.4l-1.4,0.1c-0.9,0.1-1.8,0.1-2.6-0.1c0.9-3.1,3.7-5.4,6.9-5.7
	C99.9,89.2,101.7,89.6,103.2,90.6z"/>
<path class="st9" d="M127.8,74.3L127.8,74.3c1.3,0,2.3,1,2.3,2.3v11.2c0,1.3-1,2.3-2.3,2.3h0c-1.3,0-2.3-1-2.3-2.3V76.6
	C125.5,75.3,126.6,74.3,127.8,74.3z"/>
<path class="st2" d="M88,48.6L88,48.6c1.9,0,3.4,1.5,3.4,3.4v17.4c0,1.9-1.5,3.4-3.4,3.4l0,0c-1.9,0-3.4-1.5-3.4-3.4V52
	C84.6,50.1,86.1,48.6,88,48.6z"/>
<path class="st10" d="M39.6,98.1l-0.7-0.3c-0.8-0.3-1.5-0.9-1.9-1.7c-1.3-2.1-0.6-4.8,1.5-6c0,0,0,0,0,0l10.3-6.2l4.7-2.8
	c2.1-1.2,4.8-0.6,6,1.5c0.7,1.2,0.9,2.6,0.3,3.9c-0.3,0.9-1,1.7-1.8,2.1l-14.6,8.8L43,97.6C42,98.2,40.8,98.4,39.6,98.1z"/>
<path class="st10" d="M34.9,90.6c-2.3-0.8-3.5-3.3-2.7-5.6l7.7-23.6c0.8-2.3,3.3-3.5,5.6-2.7c2.3,0.8,3.5,3.3,2.7,5.6l-7.7,23.5
	C39.7,90.1,37.2,91.4,34.9,90.6C34.9,90.6,34.9,90.6,34.9,90.6z"/>
<path class="st10" d="M24,100.1c-2,1.4-4.8,0.8-6.1-1.2L3.8,78.4c-1.3-2-0.8-4.7,1.2-6.1c2-1.4,4.7-0.9,6.1,1.1c0,0,0,0,0,0
	l14.1,20.4C26.6,96,26,98.7,24,100.1z"/>
<path class="st10" d="M25.6,91.4c-2.3,0.8-4.8-0.3-5.7-2.6l-8.8-23.2c-0.8-2.3,0.3-4.8,2.6-5.6c2.3-0.9,4.8,0.3,5.7,2.6c0,0,0,0,0,0
	l8.8,23.2C29,88.1,27.8,90.6,25.6,91.4z"/>
<path class="st10" d="M29.4,86.6c-2.4-0.1-4.4-2.1-4.3-4.5l0.3-24.8c0.1-2.4,2-4.3,4.5-4.3c2.4,0,4.4,2,4.3,4.5c0,0,0,0,0,0
	l-0.3,24.8C33.9,84.8,31.9,86.7,29.4,86.6z"/>
<path class="st1" d="M53.4,124H23.6L18,106.8c-0.4-1.2,0.1-2.5,1.1-3.2c0.5-0.3,1.1-0.5,1.6-0.5h22.1c0.7,0,1.4,0.1,2,0.4
	c1.4,0.6,2.4,1.7,2.9,3.1L53.4,124z"/>
<path class="st3" d="M119.9,28.9l-14.2-7.3l-10.3,6.5c7,3.2,13.2,8,18.1,13.9c3.2,3.8,5,8.7,5,13.7v17.7c0,3.9,3.2,7.1,7.1,7.1l0,0
	v-4.2C125.8,75.1,139.4,33.9,119.9,28.9z"/>
<circle class="st10" cx="29.7" cy="95.2" r="13.7"/>
<ellipse class="st10" cx="35.6" cy="88.1" rx="7.4" ry="7.7"/>
<circle class="st11" cx="102.4" cy="66.3" r="6.6"/>
<circle class="st11" cx="77" cy="66" r="6.9"/>
<circle class="st6" cx="79.4" cy="61.4" r="2.4"/>
<circle class="st6" cx="105.5" cy="61.4" r="2.4"/>
</svg>
