<svg viewBox="0 0 135 124" fill="none" xmlns="http://www.w3.org/2000/svg"><path d="M124 28v79a17 17 0 0 1-17 17H28a17 17 0 0 1-17-17V28a17 17 0 0 1 17-17h79a17.001 17.001 0 0 1 17 17z" fill="#FDACDD"/><path d="M37.71 29.36h-5.75v80.8h5.75v-80.8z" fill="#FEDDF1"/><path d="M37.71 29.36h-5.75v25h5.75v-25zM49.03 106.01H20.64a3.45 3.45 0 1 0 0 6.9h28.39a3.45 3.45 0 0 0 0-6.9z" fill="#FC8BCF"/><path d="M82.61 71.39H39.39a3 3 0 0 0-3 3v35.52a3 3 0 0 0 3 3h43.22a3 3 0 0 0 3-3V74.39a3 3 0 0 0-3-3z" fill="#CB791D"/><path d="M109.66 71.39H66.44a3 3 0 0 0-3 3v35.52a3 3 0 0 0 3 3h43.22a3 3 0 0 0 3-3V74.39a3 3 0 0 0-3-3z" fill="#E3A15F"/><path d="M93.93 71.39V85.5a.47.47 0 0 1-.8.33l-.85-.83-1.08 1.07a.47.47 0 0 1-.66 0L89.46 85l-1.08 1.08a.47.47 0 0 1-.66 0L86.64 85l-1.08 1.08a.47.47 0 0 1-.66 0L83.82 85l-.85.84a.47.47 0 0 1-.8-.33V71.39h11.76z" fill="#FECD92"/><path d="M102.449 87.353L89.7 90.409a5.23 5.23 0 0 0-3.867 6.305l1.266 5.28a5.23 5.23 0 0 0 6.305 3.867l12.749-3.056a5.23 5.23 0 0 0 3.867-6.305l-1.266-5.28a5.23 5.23 0 0 0-6.305-3.867z" fill="#fff"/><path d="M82.09 19a1.821 1.821 0 0 0-2.7 1.59 26.17 26.17 0 0 0 3.25 13C86.92 40.81 95 43.94 95 43.94s1.17-8.62-3.11-15.86a26.18 26.18 0 0 0-9.8-9.08z" fill="#75C900"/><path d="M95.53 44.71a.8.8 0 0 1-.65-.35L83.13 25.84a.77.77 0 0 1 .23-1.05.76.76 0 0 1 1 .23l11.81 18.52a.76.76 0 0 1-.24 1.05.72.72 0 0 1-.4.12zM102.82 10.1a1.828 1.828 0 0 0-1.437-1.674 1.828 1.828 0 0 0-2.003.924 38.579 38.579 0 0 0-3.67 9.8 39 39 0 0 0 0 15.58 38.998 38.998 0 0 0 6.43-14.19c.705-3.432.934-6.945.68-10.44z" fill="#4DB000"/><path d="M93.8 32.1a.622.622 0 0 1-.23 0 .66.66 0 0 1-.39-.84l5.69-15.36a.66.66 0 1 1 1.23.46l-5.69 15.31a.65.65 0 0 1-.61.43z" fill="#359E00"/><path d="M94.81 1.44a1.83 1.83 0 0 0-3.51.25 37.857 37.857 0 0 0-.8 10.43 38.997 38.997 0 0 0 4.32 15A39 39 0 0 0 97 11.66a38.49 38.49 0 0 0-2.19-10.22z" fill="#75C900"/><path d="M95 33.36a.75.75 0 0 1-.75-.71L92.6 7.54a.749.749 0 0 1 .71-.8.77.77 0 0 1 .81.71l1.59 25.1a.759.759 0 0 1-.71.81z" fill="#4DB000"/><path d="M89.14 13.72a1.83 1.83 0 0 0-3.34 1.09 38.047 38.047 0 0 0 1.79 10.31 38.998 38.998 0 0 0 7.86 13.45 39.11 39.11 0 0 0-1.64-15.49 37.554 37.554 0 0 0-4.67-9.36z" fill="#4DB000"/><path d="M96.55 38.08a.68.68 0 0 1-.53-.27c-4-5.59-8.81-20.43-9-21a.66.66 0 1 1 1.25-.4c0 .15 4.9 15.26 8.82 20.68a.649.649 0 0 1-.15.91.6.6 0 0 1-.39.08z" fill="#359E00"/><path d="M108.9 19.14a1.82 1.82 0 0 1 2.51 1.54c.25 3.18.16 9-2.86 14-4.4 7.17-13.38 9.66-13.38 9.66S93.34 35.16 97.74 28c3.03-4.93 8.26-7.65 11.16-8.86z" fill="#75C900"/><path d="M94.77 45.91a.75.75 0 0 1-.6-1.21 159.225 159.225 0 0 0 13.75-22.17.762.762 0 1 1 1.37.67 163.353 163.353 0 0 1-13.91 22.41.76.76 0 0 1-.61.3z" fill="#4DB000"/><path d="M114.24 33.28a1.83 1.83 0 0 1 1.54 2.9 25.56 25.56 0 0 1-8.36 7.52 26.622 26.622 0 0 1-14.21 2.62A26.649 26.649 0 0 1 103.33 36a25.4 25.4 0 0 1 10.91-2.72z" fill="#4DB000"/><path d="M77.08 30a1.83 1.83 0 0 0-1.91 2.3c.75 2.83 2.53 7.6 6.43 10.83 5.84 4.86 14.24 4.38 14.24 4.38s-1.08-8.34-6.93-13.19C85 31.13 80 30.26 77.08 30z" fill="#4DB000"/><path d="M98.28 46.53a.77.77 0 0 1-.755-.64.759.759 0 0 1 .355-.77l12.86-8a.763.763 0 1 1 .8 1.3l-12.86 8a.751.751 0 0 1-.4.11zM93.21 47.08a.75.75 0 0 1-.38-.1c-5.38-3.07-14-11.76-14.33-12.13a.76.76 0 1 1 1.08-1.06c.09.09 8.8 8.91 14 11.87a.77.77 0 0 1 .02 1.303.75.75 0 0 1-.39.117z" fill="#359E00"/><path d="M100.86 71.39H88.62a3.35 3.35 0 0 1-3.23-2.46L79.31 47h31.53l-6.78 22a3.356 3.356 0 0 1-3.2 2.39z" fill="#D67500"/><path d="M110.09 42.41H79.66a3.28 3.28 0 0 0-3.28 3.28v3.52a3.28 3.28 0 0 0 3.28 3.28h30.43a3.28 3.28 0 0 0 3.28-3.28v-3.52a3.28 3.28 0 0 0-3.28-3.28z" fill="#F58F00"/><path d="M88.68 50.41H42.27v20.98h46.41V50.41z" fill="#906CCA"/><path d="M50.62 51.37l-8.35 8.35v-2.84l6.47-6.47h.92l.96.96zM60.39 51.37L42.27 69.49v-2.84l16.24-16.24h.92l.96.96zM70.16 51.37L50.14 71.39H47.3l21.44-21.44.46.46.96.96zM79.93 51.37L59.91 71.39h-2.84l20.98-20.98.46-.46 1.42 1.42zM88.68 50.41v1.98l-19 19h-2.84l20.98-20.98h.86zM88.68 59.32v2.84l-9.23 9.23h-2.84l12.07-12.07zM88.68 69.09v2.3h-2.3l2.3-2.3z" fill="#A588D4"/><path d="M87.62 47.93h-45.1a2.88 2.88 0 0 0-2.88 2.88v.34a2.88 2.88 0 0 0 2.88 2.88h45.1a2.88 2.88 0 0 0 2.88-2.88v-.34a2.88 2.88 0 0 0-2.88-2.88z" fill="#6F519F"/><path d="M25.51 66.35a1 1 0 0 1-1-1V38.57a1 1 0 0 1 2 0v26.78a1 1 0 0 1-1 1z" fill="#FEDDF1"/><path d="M25.51 67.26a1.91 1.91 0 1 0 0-3.82 1.91 1.91 0 0 0 0 3.82z" fill="#FEDDF1"/><path d="M60.19 41.15H10.11A5.562 5.562 0 0 1 4.79 34l8.88-29.55A5.54 5.54 0 0 1 19 .5h32.31a5.54 5.54 0 0 1 5.32 4L65.51 34a5.562 5.562 0 0 1-5.32 7.15z" fill="#906CCA"/></svg>