<svg viewBox="0 0 135 124" fill="none" xmlns="http://www.w3.org/2000/svg"><g clip-path="url(#clip0)"><path d="M124 28v79a17 17 0 0 1-17 17H28a16.992 16.992 0 0 1-14.76-8.59 14.008 14.008 0 0 1-.91-1.82A17 17 0 0 1 11 107V28a17 17 0 0 1 17-17h79a17 17 0 0 1 17 17z" fill="#CB791D"/><path d="M135 100.12H44.48l14-19.44 23.43-6.89.58-26.56 7.48-10.42a13.46 13.46 0 0 1 2.4-5.81 15.997 15.997 0 0 1 3.46-3.47 3 3 0 0 1 3 .34l1 .71A90.376 90.376 0 0 1 135 100.12z" fill="#FFDCAF"/><path d="M122.4 100.12H44.47l14.9-20.76A6.79 6.79 0 0 1 65 76.6a15.142 15.142 0 0 0 14.23-20.28 6.45 6.45 0 0 1 .93-5.92l9.75-13.59a77.88 77.88 0 0 1 32.49 63.31z" fill="#FEC72E"/><path d="M73.43 95.66a8.44 8.44 0 1 0 0-16.88 8.44 8.44 0 0 0 0 16.88zM105.66 94.59a8.44 8.44 0 1 0 0-16.88 8.44 8.44 0 0 0 0 16.88zM93.56 69.31a8.44 8.44 0 1 0 0-16.88 8.44 8.44 0 0 0 0 16.88z" fill="#FC4D50"/><path d="M122.4 100.12H44.47v6.36h77.93v-6.36z" fill="#FDB02A"/><path d="M135 106.48h-12.6v-6.36a11.75 11.75 0 0 1 12.55 0l.05 6.36z" fill="#FFC070"/><path d="M80.49 14.93a22.48 22.48 0 0 1-22 36 9.698 9.698 0 0 0-8.29 2.4l-2 1.77a9.859 9.859 0 0 0-3.2 8.1A22.48 22.48 0 0 1 5.44 79.57C-2.49 70.23-1.21 56.17 7.91 48l39.91-35.87a22.49 22.49 0 0 1 32.67 2.8z" fill="#777"/><path d="M79.03 30.38l6.25-1.79v-7.67h-6.25v9.46zM6.45 66.84L.2 65.05v-6.07l6.25-1.6v9.46z" fill="#777"/><path d="M80.49 8.93a22.48 22.48 0 0 1-22 36 9.698 9.698 0 0 0-8.29 2.4l-2 1.77a9.859 9.859 0 0 0-3.2 8.1A22.48 22.48 0 0 1 5.44 73.57C-2.49 64.23-1.21 50.17 7.91 42L47.82 6.13a22.49 22.49 0 0 1 32.67 2.8z" fill="#C8C8C8"/><path d="M62.84 39.96c9.444 0 17.1-7.656 17.1-17.1 0-9.444-7.656-17.1-17.1-17.1-9.444 0-17.1 7.656-17.1 17.1 0 9.444 7.656 17.1 17.1 17.1zM22.95 75.78c9.444 0 17.1-7.656 17.1-17.1 0-9.444-7.656-17.1-17.1-17.1-9.444 0-17.1 7.656-17.1 17.1 0 9.444 7.656 17.1 17.1 17.1z" fill="#AFAFAF"/><path d="M21.56 51.44l-1.74-1.94a2.8 2.8 0 0 0-4-.21l-1.5 1.35a2.8 2.8 0 0 0-.21 4l1.74 1.93a3.082 3.082 0 0 0 2.15 1l2 .11a2 2 0 0 0 2.15-1.93l.11-2a3.09 3.09 0 0 0-.7-2.31zm2.79 14.49l1.74 1.94a2.8 2.8 0 0 0 3.95.21l1.5-1.35a2.81 2.81 0 0 0 .21-4L30 60.85a3.14 3.14 0 0 0-2.16-1l-2-.1a1.998 1.998 0 0 0-2.16 1.93l-.11 2a3.12 3.12 0 0 0 .78 2.25zm-8.64-5.85l-1.94 1.74a2.8 2.8 0 0 0-.21 3.95l1.35 1.5a2.8 2.8 0 0 0 3.95.21l1.93-1.74a3.08 3.08 0 0 0 1-2.16l.11-2a2 2 0 0 0-1.9-2.19l-2-.11a3.14 3.14 0 0 0-2.29.8zm8.37-6.29l-.11 2A2.06 2.06 0 0 0 25.91 58l2 .1a3.12 3.12 0 0 0 2.26-.79l1.93-1.74a2.8 2.8 0 0 0 .22-3.95L31 50.1a2.8 2.8 0 0 0-3.95-.21l-1.93 1.74a3.14 3.14 0 0 0-1.04 2.16z" fill="#2D2D2D"/><path d="M55.32 35.19a5.58 5.58 0 1 0 0-11.16 5.58 5.58 0 0 0 0 11.16zM70.36 21.68a5.58 5.58 0 1 0 0-11.16 5.58 5.58 0 0 0 0 11.16zM69.6 35.96a5.58 5.58 0 1 0 0-11.16 5.58 5.58 0 0 0 0 11.16zM56.09 20.92a5.58 5.58 0 1 0 0-11.16 5.58 5.58 0 0 0 0 11.16z" fill="#EBE3E3"/><path d="M37.24 15.64l4.33 12.93A5.07 5.07 0 0 1 40.16 34L36 37.66a5.05 5.05 0 0 1-5.5.83l-12.39-5.7 19.13-17.15z" fill="#AFAFAF"/><path d="M70.36 19.09a2.99 2.99 0 1 0 0-5.98 2.99 2.99 0 0 0 0 5.98z" fill="#FC4D50"/><path d="M55.32 32.6a2.99 2.99 0 1 0 0-5.98 2.99 2.99 0 0 0 0 5.98z" fill="#777"/><path d="M69.6 33.37a2.99 2.99 0 1 0 0-5.98 2.99 2.99 0 0 0 0 5.98z" fill="#FEC72E"/><path d="M56.09 18.33a2.99 2.99 0 1 0 0-5.98 2.99 2.99 0 0 0 0 5.98z" fill="#CB791D"/></g><defs><clipPath id="clip0"><path fill="#fff" d="M0 0h135v124H0z"/></clipPath></defs></svg>