<svg viewBox="0 0 135 124" version="1.1" xmlns="http://www.w3.org/2000/svg"><g stroke="none" stroke-width="1" fill="none" fill-rule="evenodd"><path d="M28 11h79c9.389 0 17 7.611 17 17v79c0 9.389-7.611 17-17 17H28c-9.389 0-17-7.611-17-17V28c0-9.389 7.611-17 17-17z" fill="#1CB0F6"/><path d="M107 124H28c-7.277 0-13.486-4.572-15.91-11h110.82c-2.424 6.428-8.633 11-15.91 11z" fill="#0891E9"/><rect fill="#4E4A4A" x="20.391" y="3" width="15.988" height="51.039" rx="2.46"/><path d="M22.85 3H33.92a2.46 2.46 0 0 1 2.46 2.46v23.169H20.39V5.459A2.46 2.46 0 0 1 22.85 3z" fill="#D93C5E"/><path d="M28.252 28.827c9.51 0 17.218 7.708 17.218 17.218v62.107a4.92 4.92 0 0 1-4.92 4.919H15.955a4.92 4.92 0 0 1-4.92-4.92V46.046c0-9.51 7.71-17.218 17.218-17.218z" fill="#4E4A4A"/><path d="M19.029 49.734h4.304c1.019 0 1.845.826 1.845 1.845v56.573a1.845 1.845 0 0 1-1.845 1.844H19.03a1.845 1.845 0 0 1-1.845-1.844V51.579c0-1.019.826-1.845 1.845-1.845z" fill="#A09797"/><rect fill="#D93C5E" x="14.724" y="55.268" width="27.671" height="41.815" rx="1.845"/><path d="M20.258 6.075h15.988c1.02 0 1.845.826 1.845 1.844v4.92a1.845 1.845 0 0 1-1.845 1.845H20.258a1.845 1.845 0 0 1-1.844-1.845v-4.92c0-1.018.826-1.844 1.844-1.844z" fill="#D93C5E"/><path d="M21.18 45.43a4.612 4.612 0 1 0 0-9.224 4.612 4.612 0 0 0 0 9.224z" fill="#A09797"/><path fill="#EE476B" d="M17.184 55.268h7.994v41.815h-7.994zM21.796 7.304h8.609a1.537 1.537 0 0 1 0 3.075h-8.61a1.537 1.537 0 0 1 0-3.075z"/><circle fill="#D8D8D8" cx="80.061" cy="42.715" r="6.457"/><path d="M79.753 47.941c25.471 0 46.12 20.649 46.12 46.12v7.379H33.634v-7.38c0-25.47 20.649-46.119 46.12-46.119z" fill="#D8D8D8"/><path d="M66.144 59.763l5.356 4.012a2.767 2.767 0 0 1-.535 5.017C60.38 72.266 54.038 79.64 51.708 91.253a2.767 2.767 0 0 1-5.271.51 2.755 2.755 0 0 1-.501-1.557c-.158-13.805 5.534-24.204 16.92-30.82a2.768 2.768 0 0 1 3.288.378z" fill="#FFF" fill-rule="nonzero"/><rect fill="#C2C0C0" x="28.1" y="100.825" width="103.922" height="7.994" rx="3.997"/><rect fill="#C2C0C0" x="35.479" y="105.129" width="87.089" height="7.994" rx="3.997"/><g transform="translate(81 1)"><path d="M17.897 29.982c.905 0 1.639.734 1.639 1.639v59.064a1.638 1.638 0 1 1-3.277 0V31.62c0-.905.734-1.639 1.638-1.639z" fill="#51A700"/><path d="M27.87 38.54c-5.308 8.708-7.335 25.469-6.223 50.438l.038.817 3.275-.154-.07-1.588c-.998-23.658.92-39.553 5.622-47.542l.158-.264-2.8-1.707z" fill="#51A700" fill-rule="nonzero"/><path d="M23.981 5.264a9.027 9.027 0 0 0-9.323 8.222l-.876 9.854 3.769 7.937h5.235a7 7 0 0 0 6.929-6.004l1.611-11.21a7.707 7.707 0 0 0-7.345-8.8z" fill="#F49000"/><path d="M12.963.145a1.8 1.8 0 0 1 1.799 1.8v1.598a1.8 1.8 0 0 1-3.598 0V1.945a1.8 1.8 0 0 1 1.799-1.8zM17.706 4.602c1.175 0 2.127.952 2.127 2.127v1.81a2.126 2.126 0 0 1-4.253 0v-1.81c0-1.175.952-2.127 2.126-2.127z" fill="#FFD300"/><path d="M8.955 6.774h1.475a8.28 8.28 0 0 1 8.118 6.654l3.574 17.849h-4.744c-5.079 0-9.589-3.25-11.197-8.067l-2.87-8.6a5.951 5.951 0 0 1 5.644-7.836z" fill="#F34848"/><rect fill="#B469E4" transform="rotate(22 38.512 32.246)" x="32.405" y="23.607" width="12.213" height="17.279" rx="6.107"/><path d="M36.375 18.53a2.16 2.16 0 0 1 2.16 2.16v1.936a2.16 2.16 0 0 1-4.32 0V20.69a2.16 2.16 0 0 1 2.16-2.16zM40.504 25.861c.946 0 1.713.767 1.713 1.713v1.341a1.713 1.713 0 0 1-3.426 0v-1.34c0-.947.767-1.714 1.713-1.714z" fill="#FFD300"/><path d="M32.995 20.86l.603.244a6.409 6.409 0 0 1 4.008 5.857l.126 9.528a6.19 6.19 0 0 1-8.507 5.82 9.309 9.309 0 0 1-5.144-12.117l2.705-6.696a4.77 4.77 0 0 1 6.21-2.636z" fill="#CE82FF"/><path d="M40.167 29.541l2.69 1.087a3.13 3.13 0 0 1 1.73 4.075l-1.255 3.107a9.457 9.457 0 0 1-12.31 5.226l-2.419-.977 3.711-9.185a6.032 6.032 0 0 1 7.853-3.333z" fill="#DBA2FF"/></g><path d="M94.841 65.123h13.318a2 2 0 0 1 1.937 2.497l-1.412 5.503a16.09 16.09 0 0 1 8.357 19.115l-5.875 19.463a2 2 0 0 1-1.915 1.422H93.75a2 2 0 0 1-1.915-1.422l-5.875-19.463a16.09 16.09 0 0 1 8.357-19.115l-1.412-5.503a2 2 0 0 1 1.937-2.497z" fill="#BBF2FF"/><path d="M97.259 67.724h3.277v32.362a1.638 1.638 0 1 1-3.277 0V67.724z" fill="#91E8FF"/><path fill="#91E8FF" fill-rule="nonzero" d="M105.63 67.725l-3.28-.001.038 16.192.054 12.81 3.28-.015-.09-24.83z"/><path d="M90 95h23l-3.482 12.187a2.5 2.5 0 0 1-2.404 1.813H95.886a2.5 2.5 0 0 1-2.404-1.813L90 95z" fill="#47D7FF"/></g></svg>